<svg xmlns="http://www.w3.org/2000/svg" xmlns:xlink="http://www.w3.org/1999/xlink" viewBox="0 0 1200 1200"><defs><style>.cls-1{fill:#fff;}.cls-2{fill:url(#radial-gradient);}.cls-3{fill:url(#radial-gradient-2);}</style><radialGradient id="radial-gradient" cx="600" cy="600" r="308.5" gradientUnits="userSpaceOnUse"><stop offset="0" stop-color="#001f44"/><stop offset="0.17" stop-color="#001d63"/><stop offset="0.42" stop-color="#001a88"/><stop offset="0.65" stop-color="#0018a4"/><stop offset="0.85" stop-color="#0016b4"/><stop offset="1" stop-color="#0016ba"/></radialGradient><radialGradient id="radial-gradient-2" cx="599.87" cy="599.87" r="599.37" xlink:href="#radial-gradient"/></defs><title>deltacogback</title><g id="Layer_4" data-name="Layer 4"><g id="Layer_2_copy" data-name="Layer 2 copy"><path class="cls-1" d="M599.35,890.5a290.5,290.5,0,0,1,.64-581h.66a290.5,290.5,0,0,1-.64,581Z"/><path d="M600,309v1h.66A290,290,0,0,1,600,890h-.66A290,290,0,0,1,600,310v-1m0,0c-160.41,0-290.63,129.86-291,290.35C308.64,760.06,438.63,890.64,599.35,891H600c160.41,0,290.63-129.86,291-290.35C891.36,439.94,761.37,309.36,600.65,309Z"/></g><path class="cls-2" d="M600,908.5a308.51,308.51,0,1,1,218.14-90.36A306.48,306.48,0,0,1,600,908.5Zm93.85-184.1H809.23L598.47,359.34,387.7,724.4h37.83L559.69,495.68Z"/><path d="M600,292a307,307,0,1,1-119.89,24.2A306.09,306.09,0,0,1,600,292M386.84,724.9h39l.29-.49L559.69,496.67,693.28,724.41l.29.49H810.1l-.87-1.5L599.33,359.84l-.86-1.5-.87,1.5L387.7,723.4l-.86,1.5M600,291c-170.66,0-309,138.34-309,309S429.34,909,600,909,909,770.66,909,600,770.66,291,600,291ZM388.57,723.9l209.9-363.56L808.37,723.9H694.14L559.69,494.69,425.24,723.9Z"/></g><g id="Layer_6_copy_5" data-name="Layer 6 copy 5"><g id="Layer_2" data-name="Layer 2"><path class="cls-1" d="M599.35,890.5a290.5,290.5,0,0,1,.64-581h.66a290.5,290.5,0,0,1-.64,581Z"/><path d="M600,309v1h.66A290,290,0,0,1,600,890h-.66A290,290,0,0,1,600,310v-1m0,0c-160.41,0-290.63,129.86-291,290.35C308.64,760.06,438.63,890.64,599.35,891H600c160.41,0,290.63-129.86,291-290.35C891.36,439.94,761.37,309.36,600.65,309Z"/></g><path class="cls-3" d="M532.52,1199.24l-26.89-151-.33-.07A454,454,0,0,1,349.78,983.7l-.28-.19-125.83,87.81-95.25-95.25,87.81-125.83L216,850a454,454,0,0,1-64.47-155.52l-.07-.33L.5,667.22V532.52l151-26.89.07-.33A454,454,0,0,1,216,349.78l.19-.28L128.42,223.67l95.25-95.25L349.5,216.23l.28-.19A454,454,0,0,1,505.3,151.57l.33-.07L532.52.5h134.7l26.89,151,.33.07A454,454,0,0,1,850,216l.28.19,125.83-87.81,95.25,95.25L983.51,349.5l.19.28a454,454,0,0,1,64.47,155.52l.07.33,151,26.89v134.7l-151,26.89-.07.33A454,454,0,0,1,983.7,850l-.19.28,87.81,125.83-95.25,95.25L850.24,983.51l-.28.19a454,454,0,0,1-155.52,64.47l-.33.07-26.89,151ZM693.85,724.4H809.23L598.47,359.34,387.7,724.4h37.83L559.69,495.68Z"/><path d="M666.8,1l26.76,150.26.12.66.66.14a453.4,453.4,0,0,1,155.34,64.4l.57.37.55-.39L976,129.07l94.66,94.66L983.3,348.94l-.39.55.37.57a453.4,453.4,0,0,1,64.4,155.34l.14.66.66.12,150.26,26.76V666.8l-150.26,26.76-.66.12-.14.66a453.4,453.4,0,0,1-64.4,155.34l-.37.57.39.55L1070.67,976,976,1070.67,850.8,983.3l-.55-.39-.57.37a453.4,453.4,0,0,1-155.34,64.4l-.66.14-.12.66L666.8,1198.74H532.94l-26.76-150.26-.12-.66-.66-.14a453.4,453.4,0,0,1-155.34-64.4l-.57-.37-.55.39-125.21,87.37L129.07,976,216.44,850.8l.39-.55-.37-.57a453.4,453.4,0,0,1-64.4-155.34l-.14-.66-.66-.12L1,666.8V532.94l150.26-26.76.66-.12.14-.66a453.4,453.4,0,0,1,64.4-155.34l.37-.57-.39-.55L129.07,223.73l94.66-94.66,125.21,87.37.55.39.57-.37a453.4,453.4,0,0,1,155.34-64.4l.66-.14.12-.66L532.94,1H666.8m-280,723.9h39l.29-.49L559.69,496.67,693.28,724.41l.29.49H810.1l-.87-1.5L599.33,359.84l-.86-1.5-.87,1.5L387.7,723.4l-.86,1.5M667.63,0H532.11L505.19,151.08a456,456,0,0,0-155.68,64.54L223.62,127.77l-95.85,95.85,87.85,125.89a456,456,0,0,0-64.54,155.68L0,532.11V667.63l151.08,26.92a456,456,0,0,0,64.54,155.68L127.77,976.12,223.62,1072l125.89-87.85a456,456,0,0,0,155.68,64.54l26.92,151.08H667.63l26.92-151.08a456,456,0,0,0,155.68-64.54L976.12,1072,1072,976.12,984.12,850.23a456,456,0,0,0,64.54-155.68l151.08-26.92V532.11l-151.08-26.92a456,456,0,0,0-64.54-155.68L1072,223.62l-95.85-95.85L850.23,215.62a456,456,0,0,0-155.68-64.54L667.63,0ZM388.57,723.9l209.9-363.56L808.37,723.9H694.14L559.69,494.69,425.24,723.9Z"/></g></svg>