<svg id="Layer_6_copy_6" data-name="Layer 6 copy 6" xmlns="http://www.w3.org/2000/svg" xmlns:xlink="http://www.w3.org/1999/xlink" viewBox="0 0 1200 1200"><defs><style>.cls-1{fill:none;}.cls-2{clip-path:url(#clip-path);}.cls-3{fill:#fff;}.cls-4{fill:url(#radial-gradient);}</style><clipPath id="clip-path"><circle class="cls-1" cx="600" cy="600" r="328.42"/></clipPath><radialGradient id="radial-gradient" cx="601.79" cy="599.88" r="573.87" gradientUnits="userSpaceOnUse"><stop offset="0" stop-color="#001f44"/><stop offset="0.17" stop-color="#001d63"/><stop offset="0.42" stop-color="#001a88"/><stop offset="0.65" stop-color="#0018a4"/><stop offset="0.85" stop-color="#0016b4"/><stop offset="1" stop-color="#0016ba"/></radialGradient></defs><title>deltacogFront</title><g class="cls-2"><path class="cls-3" d="M601.29,878.13a278.13,278.13,0,0,1,.61-556.26h.64a278.13,278.13,0,0,1-.61,556.26Z"/><path d="M601.9,322.37h.64a277.63,277.63,0,0,1-.61,555.26h-.64a277.63,277.63,0,0,1,.61-555.26m0-1c-153.58,0-278.27,124.34-278.61,278-.35,153.88,124.12,278.9,278,279.25h.64c153.58,0,278.27-124.34,278.61-278,.35-153.88-124.12-278.9-278-279.25Z"/><path class="cls-4" d="M537.33,1173.75l-25.76-144.58-.33-.07a434.67,434.67,0,0,1-148.89-61.73l-.29-.18-120.47,84.06-91.18-91.17L234.48,839.6l-.18-.28a434.47,434.47,0,0,1-61.73-148.89l-.07-.33L27.92,664.34V535.41L172.5,509.66l.07-.33a434.52,434.52,0,0,1,61.73-148.9l.18-.28L150.41,239.67l91.18-91.17,120.47,84.06.29-.18a434.67,434.67,0,0,1,148.89-61.73l.33-.06L537.33,26H666.26L692,170.59l.33.06a434.59,434.59,0,0,1,148.89,61.73l.29.18L962,148.5l91.18,91.17L969.1,360.15l.19.28A434.7,434.7,0,0,1,1031,509.33l.07.33,144.58,25.75V664.34L1031.08,690.1l-.07.33a434.65,434.65,0,0,1-61.72,148.89l-.19.28,84.07,120.48L962,1051.25,841.52,967.19l-.29.18a434.59,434.59,0,0,1-148.89,61.73l-.33.07-25.75,144.58ZM691.77,719.13H802.29L600.45,369.52,398.6,719.13h36.27l128.45-219Z"/><path d="M665.84,26.51l25.62,143.83.12.67.66.13A434.16,434.16,0,0,1,841,232.8l.57.37.55-.39,119.86-83.63,90.58,90.58L968.88,359.59l-.38.55.37.57a434.14,434.14,0,0,1,61.65,148.72l.14.66.67.12,143.83,25.62V663.92l-143.83,25.62-.67.12-.14.66a434.19,434.19,0,0,1-61.65,148.73l-.37.56.38.55L1052.52,960l-90.58,90.58L842.08,967l-.55-.39L841,967a434.16,434.16,0,0,1-148.72,61.66l-.66.14-.12.66-25.62,143.84H537.74l-25.62-143.84-.12-.66-.66-.14A434.16,434.16,0,0,1,362.62,967l-.57-.37-.55.39L241.64,1050.6,151.06,960,234.7,840.16l.38-.55-.37-.56a434.19,434.19,0,0,1-61.65-148.73l-.14-.66-.66-.12L28.42,663.92V535.83l143.84-25.62.66-.12.14-.66a434.14,434.14,0,0,1,61.65-148.72l.37-.57-.38-.55L151.06,239.73l90.58-90.58L361.5,232.78l.55.39.57-.37a434.16,434.16,0,0,1,148.72-61.66L512,171l.12-.67L537.74,26.51h128.1M397.74,719.63h37.42l.29-.49,127.87-218,127.87,218,.29.49H803.16l-.87-1.5L601.31,370l-.86-1.5-.87,1.5-201,348.1-.86,1.5M666.67,25.51H536.91L511.14,170.17A436.52,436.52,0,0,0,362.07,232L241.53,147.85l-91.77,91.77,84.12,120.54a436.29,436.29,0,0,0-61.8,149.06L27.42,535V664.76l144.66,25.77a436.21,436.21,0,0,0,61.8,149.06L149.76,960.14l91.77,91.76,120.54-84.11a436.73,436.73,0,0,0,149.07,61.8l25.77,144.66H666.67l25.77-144.66a436.73,436.73,0,0,0,149.07-61.8l120.54,84.11,91.77-91.76L969.7,839.59a436.21,436.21,0,0,0,61.8-149.06l144.66-25.77V535L1031.5,509.22a436.29,436.29,0,0,0-61.8-149.06l84.12-120.54-91.77-91.77L841.51,232a436.52,436.52,0,0,0-149.07-61.79L666.67,25.51ZM399.47,718.63l201-348.1,201,348.1H692.05L563.32,499.17,434.58,718.63Z"/></g></svg>